<?xml version="1.0" standalone="no"?>
<!DOCTYPE svg PUBLIC "-//W3C//DTD SVG 20010904//EN"
 "http://www.w3.org/TR/2001/REC-SVG-20010904/DTD/svg10.dtd">
<svg version="1.0" xmlns="http://www.w3.org/2000/svg"
 width="200.000000pt" height="200.000000pt" viewBox="0 0 200.000000 200.000000"
 preserveAspectRatio="xMidYMid meet">

<g transform="translate(0.000000,200.000000) scale(0.100000,-0.100000)"
fill="#000000" stroke="none">
<path d="M0 1000 l0 -940 1000 0 1000 0 0 940 0 940 -1000 0 -1000 0 0 -940z
m685 209 c11 -6 29 -23 40 -39 15 -23 28 -30 52 -30 40 0 54 -23 55 -90 0 -84
-50 -141 -149 -170 -51 -16 -83 -8 -127 30 -19 17 -45 30 -60 30 -64 0 -89
137 -38 206 51 68 156 98 227 63z m-415 -129 l0 -140 78 0 c73 -1 79 -2 116
-35 l39 -35 -166 0 -167 0 0 175 0 175 50 0 50 0 0 -140z m960 100 l-20 -40
-70 0 -70 0 0 -134 0 -134 -46 -4 c-25 -2 -47 -1 -50 1 -2 2 -4 64 -4 138 l0
133 -65 0 c-36 0 -65 4 -65 9 0 5 -14 23 -31 40 l-31 31 236 0 236 0 -20 -40z
m238 -128 c45 -93 82 -172 82 -175 0 -4 -20 -7 -45 -7 -42 0 -47 3 -62 35
l-17 35 -86 0 -86 0 -16 -34 c-14 -29 -22 -34 -58 -38 -23 -2 -43 -1 -46 3 -2
4 33 84 78 178 l82 171 46 0 47 0 81 -168z m174 66 l97 -103 1 103 0 102 50 0
50 0 -2 -172 -3 -173 -42 -6 c-25 -3 -43 -1 -43 4 0 10 -167 189 -182 195 -4
2 -8 -18 -10 -45 l-3 -48 -42 82 c-30 57 -43 95 -43 123 0 40 0 40 38 40 34 0
44 -7 134 -102z"/>
<path d="M559 1111 c-20 -20 -29 -39 -29 -61 0 -22 9 -41 29 -61 78 -78 205 5
160 104 -25 54 -114 64 -160 18z"/>
<path d="M1312 1060 l-21 -50 50 0 c27 0 49 2 49 5 0 11 -45 95 -51 95 -3 0
-16 -22 -27 -50z"/>
</g>
</svg>
