<svg version="1.0" xmlns="http://www.w3.org/2000/svg"
 width="3508.000000pt" height="2480.000000pt" viewBox="0 0 3508.000000 2480.000000"
 preserveAspectRatio="xMidYMid meet">
<metadata>
Created by potrace 1.16, written by Peter Selinger 2001-2019
</metadata>
<g transform="translate(0.000000,2480.000000) scale(0.100000,-0.100000)"
fill="#000000" stroke="none">
<path d="M4270 14560 c-593 -56 -1129 -259 -1506 -572 -468 -389 -602 -929
-375 -1510 104 -265 293 -494 537 -650 63 -40 212 -113 279 -136 250 -85 799
-197 1165 -237 356 -38 451 -58 624 -125 270 -105 431 -269 396 -401 -42 -155
-310 -261 -660 -261 -318 -1 -601 67 -811 193 -138 82 -215 172 -233 271 -4
22 -17 45 -33 58 -36 28 -31 28 -1068 -10 -411 -15 -422 -19 -417 -143 9 -233
145 -521 357 -755 56 -62 219 -198 319 -266 233 -158 535 -292 836 -370 l125
-33 -460 -7 c-253 -4 -688 -6 -967 -6 -324 1 -508 -2 -508 -8 0 -6 -9 -8 -19
-5 -24 6 -82 -27 -74 -41 3 -6 3 -8 -2 -4 -18 17 -132 -53 -120 -73 3 -4 1
-10 -4 -13 -14 -9 -26 -297 -12 -305 7 -5 8 -17 2 -37 -4 -16 -7 -80 -7 -141
1 -62 -2 -113 -7 -113 -5 0 -7 -180 -5 -411 4 -315 7 -412 17 -418 7 -5 12
-11 12 -15 -1 -3 2 -7 7 -8 4 0 12 -7 17 -14 6 -8 30 -21 55 -31 43 -17 191
-18 2830 -22 1532 -3 3723 -5 4870 -5 1147 -1 2093 -5 2102 -9 10 -5 1095 -7
2413 -4 1457 3 2397 2 2400 -4 8 -12 82 -11 90 1 5 8 11 7 20 0 11 -9 703 -11
2689 -8 1471 1 2678 0 2682 -5 11 -11 82 -8 89 3 5 8 11 7 21 -1 10 -8 720
-10 2836 -8 1553 2 2829 0 2835 -4 7 -5 896 -9 1975 -9 1080 -1 2395 -2 2923
-2 l960 -1 48 24 c57 28 86 62 83 96 -2 13 0 22 4 20 15 -9 20 169 20 732 0
416 -3 583 -11 583 -7 0 -9 23 -6 70 5 80 -4 100 -63 130 -55 28 -151 40 -329
40 l-153 0 6 53 c8 69 22 863 41 2302 8 644 19 1402 24 1685 5 295 5 522 0
531 -7 14 -37 18 -191 24 -216 8 -1063 1 -1095 -10 -12 -4 -25 -14 -29 -23
-15 -36 -25 -809 -21 -1697 2 -511 2 -958 0 -992 l-5 -63 -55 48 c-43 37 -553
596 -898 983 -28 31 -131 146 -230 255 -99 109 -282 312 -406 449 -124 138
-317 351 -429 475 -112 124 -271 302 -355 395 -83 94 -158 175 -166 181 -24
19 -136 22 -593 14 -442 -8 -477 -11 -498 -44 -4 -6 -10 -33 -13 -61 -7 -68
-24 -557 -27 -785 l-2 -185 223 -440 c123 -242 288 -564 366 -715 78 -151 206
-401 285 -555 309 -606 332 -645 380 -645 11 0 28 12 37 27 17 25 18 78 23
709 3 375 7 685 10 687 3 3 66 -63 141 -146 175 -195 510 -564 760 -838 107
-117 319 -349 470 -515 151 -165 342 -374 424 -465 405 -442 576 -631 573
-634 -2 -2 -567 -5 -1257 -6 l-1253 -3 -137 289 c-75 160 -157 335 -183 390
-105 226 -396 844 -561 1190 -96 204 -276 584 -400 845 -712 1503 -918 1928
-944 1948 -13 9 -151 12 -609 12 -583 0 -592 0 -618 -21 -14 -11 -26 -24 -26
-29 0 -4 -169 -354 -376 -776 -207 -423 -423 -863 -479 -979 -56 -115 -196
-401 -310 -635 -427 -874 -996 -2051 -1040 -2152 l-30 -67 -356 -1 -355 0 -12
838 c-7 460 -17 1166 -22 1567 -5 402 -12 805 -15 898 l-6 167 946 0 946 0 26
26 c24 24 212 400 430 859 53 110 102 209 109 220 19 27 18 41 -6 65 -20 20
-32 20 -2477 19 -2993 -2 -3893 -8 -3916 -28 -25 -20 -21 -67 6 -86 12 -9 69
-47 127 -85 313 -205 613 -543 772 -867 45 -93 53 -103 81 -108 18 -3 379 -6
804 -8 424 -1 775 -5 779 -9 4 -5 2 -450 -5 -990 -7 -541 -15 -1317 -18 -1725
l-6 -743 -1681 -1 c-925 0 -1715 -1 -1756 -1 -41 0 -170 0 -287 1 l-212 1 -3
27 c-3 24 -18 35 -134 93 -219 109 -440 271 -661 484 -73 71 -167 171 -209
222 -41 52 -84 98 -94 104 -12 7 -370 10 -1030 10 l-1011 0 7 1838 7 1837 -24
28 -25 29 -676 -11 c-474 -8 -685 -15 -703 -23 -14 -6 -28 -23 -32 -37 -11
-44 17 -4222 31 -4518 l3 -73 -1106 0 -1106 1 112 34 c419 129 773 342 1059
637 210 217 345 444 460 773 174 496 163 1186 -26 1731 -45 128 -139 319 -201
408 -30 42 -68 97 -84 121 -78 112 -277 304 -447 434 -327 249 -747 436 -1158
515 -225 44 -317 51 -665 51 -355 0 -397 -4 -592 -61 -108 -31 -342 -138 -431
-198 -268 -178 -502 -523 -604 -890 -24 -87 -48 -212 -48 -250 0 -16 -8 -38
-17 -48 -22 -24 -131 -57 -383 -114 -297 -67 -303 -68 -310 -84 -10 -21 -87
-264 -109 -346 -72 -260 -82 -577 -30 -884 84 -493 323 -942 659 -1238 276
-243 648 -445 1016 -553 60 -17 111 -33 113 -35 2 -2 -821 -4 -1830 -4 l-1834
1 150 44 c289 84 540 198 747 341 155 106 207 152 311 273 191 223 303 435
364 691 14 58 18 116 18 255 0 157 -3 191 -23 265 -114 417 -396 703 -848 860
-492 171 -680 217 -1209 295 -396 59 -720 118 -791 146 -50 18 -91 57 -125
115 -26 46 -33 71 -37 131 -4 67 -2 79 27 138 63 126 216 230 415 280 82 21
122 25 244 25 79 0 174 -5 211 -10 36 -6 91 -15 121 -20 30 -4 64 -11 75 -14
11 -4 2 2 -20 13 -60 29 -182 59 -293 71 -284 31 -611 -81 -742 -254 -110
-145 -112 -277 -9 -422 71 -98 166 -122 992 -249 349 -54 442 -72 637 -125
193 -52 604 -192 682 -231 176 -88 371 -253 467 -396 323 -481 229 -1109 -239
-1596 -223 -232 -576 -429 -972 -541 -156 -45 -350 -84 -476 -96 -53 -5 -272
-10 -485 -10 -447 0 -532 9 -833 85 -359 91 -684 240 -939 430 -189 140 -382
366 -469 548 -86 179 -134 422 -91 457 20 16 143 23 842 46 591 19 566 21 579
-39 42 -199 321 -377 710 -456 468 -95 951 5 1059 220 30 58 31 109 4 168 -97
214 -486 396 -924 432 -444 37 -1119 177 -1371 285 -204 88 -443 287 -563 469
-157 238 -231 491 -231 786 0 263 52 438 193 649 64 97 267 299 380 378 377
267 860 429 1402 473 181 14 530 7 695 -16 512 -69 936 -233 1266 -491 52 -41
98 -74 102 -74 11 -1 145 -131 170 -165 15 -21 21 -25 22 -13 0 25 -92 130
-194 220 -326 288 -807 487 -1366 564 -135 18 -586 27 -730 14z m5810 -281
c673 -53 1299 -332 1749 -780 175 -174 274 -305 358 -474 177 -352 265 -800
250 -1265 -12 -369 -70 -614 -219 -938 -115 -247 -224 -401 -419 -586 -308
-293 -686 -492 -1164 -613 l-110 -28 -630 0 -630 0 -120 28 c-518 120 -965
351 -1307 676 -467 444 -703 1243 -567 1916 19 93 123 431 138 447 3 4 119 32
256 62 277 62 365 86 412 115 28 17 32 27 38 78 47 397 253 796 541 1045 199
172 548 306 859 331 67 6 432 -3 565 -14z m4218 -47 c10 -7 13 -343 12 -1748
0 -956 -3 -1786 -6 -1844 -3 -58 -1 -111 4 -118 7 -10 203 -13 1024 -12 558 0
1023 -2 1032 -6 9 -4 45 -43 78 -88 125 -166 401 -416 643 -582 55 -38 158
-99 230 -135 99 -50 131 -71 133 -88 l3 -21 -2244 0 -2244 0 -7 208 c-3 114
-8 527 -11 917 -20 2589 -24 3465 -19 3478 8 22 74 26 729 35 319 5 591 9 605
10 14 1 31 -2 38 -6z m12767 -23 c17 -17 421 -857 1030 -2144 546 -1153 1095
-2318 1151 -2442 l24 -53 -661 0 -660 0 -61 128 c-34 70 -119 249 -189 397
l-128 270 -1133 -3 -1133 -4 -183 -381 c-101 -210 -188 -386 -193 -392 -7 -7
-236 -9 -662 -6 -359 2 -653 4 -655 6 -4 4 29 76 161 350 160 333 957 1971
1385 2845 615 1259 692 1414 702 1424 14 14 399 24 848 22 290 -2 345 -4 357
-17z m-1809 -2 c6 -18 -500 -1061 -534 -1099 -14 -17 -73 -18 -970 -18 l-955
0 7 -577 c3 -318 11 -846 16 -1173 5 -327 12 -857 16 -1177 l7 -583 -698 0
-698 0 6 788 c3 433 11 1220 18 1750 7 529 9 965 6 968 -3 3 -362 8 -799 10
-436 2 -802 6 -813 9 -13 4 -34 36 -62 94 -151 314 -480 679 -801 889 -93 60
-113 77 -110 95 l3 22 425 5 c234 3 1664 6 3178 8 2233 2 2754 0 2758 -11z
m4026 -102 c29 -33 262 -291 518 -575 256 -283 775 -859 1154 -1280 397 -441
726 -798 777 -843 l89 -78 1 1233 c1 1212 6 1558 22 1575 11 10 1238 16 1254
5 10 -6 11 -132 3 -598 -6 -324 -14 -926 -20 -1339 -14 -1044 -28 -2006 -36
-2352 l-6 -293 -580 0 -579 0 -49 48 c-26 26 -214 229 -417 452 -202 223 -578
635 -833 915 -881 966 -985 1081 -1075 1184 l-90 103 -6 -73 c-4 -41 -7 -362
-8 -714 -1 -352 -4 -650 -7 -662 -10 -37 -48 -30 -74 15 -32 53 -266 507 -663
1282 -451 883 -498 978 -508 1020 -8 34 16 913 27 977 3 24 11 34 29 39 33 8
592 22 832 20 l192 -1 53 -60z m-1667 -3892 c72 -155 197 -417 254 -533 22
-46 41 -85 41 -87 0 -2 -662 -3 -1471 -3 -1386 0 -1471 1 -1465 17 4 10 84
177 177 373 l170 355 1117 3 1117 3 60 -128z m2936 -1049 c237 -54 367 -312
280 -559 -44 -124 -151 -220 -280 -249 -88 -20 -119 -20 -198 0 -123 31 -215
103 -264 209 -115 247 3 529 251 596 82 22 123 23 211 3z m929 -34 l0 -40 -64
0 c-34 0 -91 -3 -125 -6 l-61 -7 0 -353 0 -354 -45 0 -45 0 0 355 0 355 -130
0 -130 0 0 45 0 45 300 0 300 0 0 -40z m363 28 c3 -7 77 -186 166 -397 89
-210 161 -385 161 -387 0 -2 -22 -4 -48 -4 l-49 0 -36 93 -37 92 -197 -3
c-109 -2 -203 -5 -209 -6 -6 -2 -25 -43 -44 -90 l-33 -86 -49 0 -48 0 14 34
c8 19 81 199 162 400 l148 366 47 0 c28 0 49 -5 52 -12z m747 -305 c122 -175
227 -322 232 -328 7 -6 9 106 6 318 l-4 327 41 0 42 0 6 -182 c4 -99 7 -279 7
-400 l0 -218 -47 0 -48 1 -229 324 c-126 179 -229 325 -230 325 -1 0 0 -146 2
-325 l3 -325 -46 0 -45 0 -2 393 c-2 215 -2 395 0 400 2 4 22 7 46 7 l42 0
224 -317z m-2977 180 c4 -71 7 -233 7 -360 l0 -233 200 0 200 0 0 -40 0 -40
-245 0 -245 0 -2 393 c-2 215 -2 395 0 400 2 4 20 7 41 7 l38 0 6 -127z
m-2063 77 l0 -40 -64 0 c-34 0 -91 -3 -125 -6 l-61 -7 0 -353 0 -354 -45 0
-45 0 0 355 0 355 -130 0 -130 0 0 45 0 45 300 0 300 0 0 -40z m205 -135 l7
-175 224 0 224 0 0 175 0 175 45 0 45 0 0 -400 0 -400 -39 0 -38 0 -7 61 c-3
34 -6 115 -6 180 l0 119 -225 0 -225 0 0 -180 0 -180 -45 0 -45 0 -2 393 c-2
215 -2 395 0 400 2 4 20 7 42 7 l38 0 7 -175z m1315 136 l0 -40 -224 -3 c-123
-2 -227 -5 -229 -8 -3 -3 -3 -62 0 -132 l6 -128 207 0 208 0 6 -35 c4 -20 4
-40 1 -45 -4 -6 -89 -10 -216 -10 l-209 0 0 -140 0 -140 225 0 225 0 0 -40 0
-40 -270 0 -270 0 -2 393 c-2 215 -2 395 0 400 2 4 124 7 273 7 l269 0 0 -39z
m-3312 14 c102 -30 162 -121 148 -223 -8 -56 -29 -95 -70 -128 l-34 -28 42
-26 c56 -36 81 -87 81 -165 -1 -85 -33 -140 -105 -180 l-55 -30 -207 -3 -208
-4 -2 394 c-2 216 -2 396 0 401 2 4 83 7 181 7 130 0 191 -4 229 -15z m452
-187 c67 -112 124 -206 129 -210 4 -5 61 87 126 202 l120 210 52 0 53 0 -49
-82 c-26 -46 -94 -161 -150 -256 l-101 -173 0 -144 0 -145 -45 0 -45 0 0 139
0 139 -136 229 c-74 125 -145 243 -156 261 l-20 32 51 0 50 0 121 -202z
m-5779 176 c237 -54 367 -312 280 -559 -44 -124 -151 -220 -280 -249 -88 -20
-119 -20 -198 0 -123 31 -215 103 -264 209 -115 247 3 529 251 596 82 22 123
23 211 3z m3609 -23 l0 -40 -224 -3 c-123 -2 -227 -5 -229 -8 -3 -3 -3 -62 0
-132 l6 -128 207 0 208 0 6 -35 c4 -20 4 -40 1 -45 -4 -6 -89 -10 -216 -10
l-209 0 0 -140 0 -140 225 0 225 0 0 -40 0 -40 -270 0 -270 0 -2 393 c-2 215
-2 395 0 400 2 4 124 7 273 7 l269 0 0 -39z m543 24 c172 -36 281 -149 307
-317 27 -175 -49 -342 -189 -413 -84 -42 -161 -55 -333 -55 l-158 0 -2 393
c-2 215 -2 395 0 400 6 13 303 7 375 -8z m-2013 -34 l0 -40 -224 -3 c-123 -2
-227 -5 -229 -8 -3 -3 -3 -62 0 -132 l6 -128 207 0 208 0 6 -35 c4 -20 4 -40
1 -45 -4 -6 -89 -10 -216 -10 l-209 0 0 -140 0 -140 225 0 225 0 0 -40 0 -40
-270 0 -270 0 -2 393 c-2 215 -2 395 0 400 2 4 124 7 273 7 l269 0 0 -39z
m640 15 c84 -44 121 -106 122 -200 0 -66 -11 -104 -43 -145 -25 -32 -87 -71
-113 -71 -24 0 -24 -1 84 -187 49 -86 90 -160 90 -165 0 -4 -22 -8 -49 -8
l-49 0 -93 170 -92 170 -114 0 -113 0 0 -170 0 -170 -45 0 -45 0 -2 393 c-2
215 -1 396 1 400 1 5 98 7 215 5 183 -3 216 -5 246 -22z m-2308 -63 c137 -447
184 -591 189 -585 4 4 51 154 105 335 l99 327 50 0 50 0 105 -335 c58 -184
108 -331 111 -327 3 4 43 133 89 287 45 154 89 301 97 328 14 47 14 47 58 47
25 0 45 -3 45 -7 1 -5 -55 -185 -122 -401 l-123 -393 -49 3 -49 3 -106 338
-106 339 -18 -59 c-10 -32 -56 -185 -104 -340 l-86 -283 -48 0 -48 0 -127 388
c-70 213 -129 393 -131 400 -4 8 9 12 45 12 l51 0 23 -77z m-1234 51 c86 -28
139 -95 149 -188 11 -105 -31 -186 -120 -230 -55 -27 -68 -29 -208 -34 l-149
-5 0 -163 0 -164 -45 0 -45 0 -2 393 c-2 215 -2 395 0 400 2 4 86 7 186 7 143
0 195 -4 234 -16z"/>
<path d="M9705 13089 c-155 -22 -355 -101 -497 -196 -89 -59 -229 -196 -291
-284 -177 -252 -241 -542 -188 -859 27 -159 71 -266 177 -427 245 -371 710
-600 1089 -539 496 82 887 458 970 935 34 190 7 457 -60 610 -151 342 -413
588 -759 710 -155 55 -296 71 -441 50z m339 -53 c353 -90 642 -329 801 -661
62 -129 69 -151 91 -310 47 -341 -68 -679 -315 -925 -254 -253 -635 -379 -941
-311 -383 85 -700 351 -859 719 -21 48 -41 107 -45 132 -22 135 -26 175 -26
283 -1 133 10 207 46 322 68 213 201 404 377 537 264 201 598 283 871 214z"/>
<path d="M26387 12623 c-36 -76 -103 -217 -150 -313 -286 -597 -457 -957 -457
-963 0 -10 1318 -9 1324 1 3 6 -636 1398 -648 1410 -2 1 -32 -60 -69 -135z
m161 -123 c79 -173 201 -433 448 -963 41 -88 74 -161 74 -163 0 -2 -281 -4
-625 -4 -344 0 -625 2 -625 4 0 2 29 63 64 137 35 74 144 301 241 504 290 606
328 685 331 683 1 -2 42 -91 92 -198z"/>
<path d="M30325 9066 c-119 -50 -185 -159 -185 -306 0 -138 53 -235 161 -295
49 -27 62 -30 149 -30 106 0 154 17 218 78 125 118 129 357 8 485 -82 88 -233
117 -351 68z"/>
<path d="M31703 8845 l-81 -205 170 0 c158 0 170 1 164 18 -28 75 -161 392
-166 392 -3 0 -42 -92 -87 -205z"/>
<path d="M25434 8999 c3 -34 6 -95 6 -135 l0 -74 135 0 c155 0 193 10 225 62
30 47 23 118 -15 158 -37 38 -92 50 -236 50 l-122 0 7 -61z"/>
<path d="M25440 8559 l0 -141 148 4 c115 3 154 8 180 21 96 52 95 190 -2 237
-37 17 -62 20 -184 20 l-142 0 0 -141z"/>
<path d="M20205 9016 c-119 -50 -185 -159 -185 -306 0 -138 53 -235 161 -295
49 -27 62 -30 149 -30 106 0 154 17 218 78 125 118 129 357 8 485 -82 88 -233
117 -351 68z"/>
<path d="M24293 8989 c4 -30 7 -172 7 -316 l0 -263 63 0 c95 0 222 18 271 40
69 29 122 83 147 148 17 47 20 73 17 147 -6 139 -55 217 -167 268 -38 17 -72
21 -195 25 l-149 4 6 -53z"/>
<path d="M22951 9032 l-124 -3 7 -52 c3 -29 6 -91 6 -139 l0 -88 143 0 c165 0
213 15 242 71 27 51 16 132 -21 170 -37 37 -86 45 -253 41z"/>
<path d="M19334 8958 c3 -29 6 -95 6 -145 l0 -93 138 0 c151 0 187 10 225 62
25 33 27 120 4 164 -28 53 -66 64 -232 64 l-148 0 7 -52z"/>
<path d="M16144 12174 c-8 -4 -10 -103 -7 -362 4 -426 9 -517 30 -537 13 -13
219 -15 1646 -15 898 0 1683 3 1745 7 93 5 112 9 112 22 0 15 -82 15 -932 10
-1580 -10 -2546 -10 -2553 1 -3 6 -9 206 -12 445 -3 239 -9 435 -12 434 -3 0
-11 -3 -17 -5z"/>
</g>
</svg>
