<svg xmlns="http://www.w3.org/2000/svg" id="Layer_2" data-name="Layer 2" width="170" height="48.93" viewBox="0 0 170 48.93"><defs><style>      .cls-1 {        fill: #f75200;      }      .cls-2 {        fill: #fff;      }    </style></defs><g id="Layer_1-2" data-name="Layer 1"><g><g><g><path d="M25.98,29.38H10.34V.32H0V36.13H34.69v-.2c-1.5-.39-3.61-1.44-4.76-2.39-2.33-1.92-2.27-2.14-3.95-4.17Z"></path><path d="M61.23,.32c2.44,1.37,5.01,3.9,6.73,6.53,.39,.6,.73,1.21,1.05,1.83h12.75v27.46h10.06V8.68h14.36L110.32,.32H61.23Z"></path><polygon points="160.66 .36 160.66 22.36 140.35 .36 132.53 .36 132.53 8.12 141.76 26.42 141.87 26.42 141.87 14.6 162.24 36.6 170 36.6 170 .36 160.66 .36"></polygon></g><path d="M65.13,8.76h-6.44c-.32-.62-.66-1.24-1.05-1.83-1.72-2.63-4.03-4.91-6.73-6.53,0,0-2.43-.4-3.87-.4-3.95,0-7.52,.78-10.69,2.34-3.17,1.56-5.66,3.72-7.45,6.46-1.8,2.74-2.69,5.83-2.69,9.25s.9,6.51,2.69,9.25c.37,.57,.77,1.11,1.2,1.62,.13,.15,.26,.3,.4,.45h5.75c1.69,2.04,1.62,2.25,3.95,4.17,1.15,.95,3.26,1.99,4.76,2.39,0,0,1.38,.18,2.08,.18,3.95,0,7.51-.78,10.66-2.34,3.16-1.56,5.64-3.72,7.45-6.46,1.81-2.74,2.72-5.83,2.72-9.25s-.91-6.51-2.72-9.25c0-.01-.02-.03-.03-.04Zm-9.25,14.23c-.88,1.45-2.1,2.57-3.64,3.38-1.55,.81-3.28,1.21-5.2,1.21s-3.65-.4-5.2-1.21c-1.55-.81-2.76-1.94-3.64-3.38-.88-1.45-1.32-3.09-1.32-4.93s.44-3.49,1.32-4.93c.88-1.45,2.09-2.57,3.64-3.38,1.55-.81,3.28-1.21,5.2-1.21s3.65,.4,5.2,1.21c1.55,.81,2.76,1.94,3.64,3.38,.88,1.45,1.32,3.09,1.32,4.93s-.44,3.49-1.32,4.93Z"></path></g><rect class="cls-1" y="36.13" width="170" height="12.79"></rect><g><path class="cls-2" d="M118.25,44.6h1.18v3.26c-.43,.34-.92,.61-1.49,.79-.57,.18-1.16,.28-1.77,.28-.87,0-1.65-.19-2.35-.56s-1.25-.88-1.64-1.53c-.4-.65-.6-1.38-.6-2.19s.2-1.55,.6-2.2,.95-1.16,1.65-1.53c.7-.37,1.49-.55,2.37-.55,.69,0,1.32,.11,1.88,.33,.56,.22,1.04,.54,1.43,.96l-.76,.74c-.69-.65-1.52-.97-2.5-.97-.66,0-1.25,.14-1.77,.41s-.93,.66-1.23,1.15-.44,1.04-.44,1.66,.15,1.15,.44,1.64,.7,.88,1.23,1.15c.52,.28,1.11,.42,1.76,.42,.77,0,1.45-.18,2.02-.54v-2.73Z"></path><path class="cls-2" d="M130.02,48.83l-1.86-2.57c-.23,.02-.41,.02-.54,.02h-2.13v2.55h-1.23v-8.37h3.36c1.12,0,2,.26,2.64,.78s.96,1.23,.96,2.14c0,.65-.16,1.2-.49,1.65-.33,.45-.8,.78-1.4,.99l2.04,2.81h-1.34Zm-.65-4.05c.41-.33,.62-.79,.62-1.4s-.21-1.07-.62-1.39c-.41-.32-1.01-.48-1.79-.48h-2.09v3.77h2.09c.78,0,1.38-.16,1.79-.49Z"></path><path class="cls-2" d="M137.21,48.37c-.7-.37-1.25-.88-1.64-1.54-.4-.65-.6-1.38-.6-2.19s.2-1.53,.6-2.19,.95-1.17,1.64-1.54,1.48-.56,2.35-.56,1.64,.19,2.34,.56c.7,.37,1.24,.88,1.64,1.53,.39,.65,.59,1.38,.59,2.19s-.2,1.54-.59,2.19c-.39,.65-.94,1.16-1.64,1.53-.7,.37-1.48,.56-2.34,.56s-1.65-.19-2.35-.56Zm4.06-.93c.51-.28,.9-.66,1.19-1.15s.44-1.04,.44-1.64-.15-1.15-.44-1.64-.69-.87-1.19-1.15-1.07-.42-1.71-.42-1.2,.14-1.72,.42-.92,.66-1.21,1.15-.44,1.04-.44,1.64,.15,1.15,.44,1.64,.69,.88,1.21,1.15c.51,.28,1.09,.42,1.72,.42s1.2-.14,1.71-.42Z"></path><path class="cls-2" d="M149.37,47.97c-.64-.64-.96-1.55-.96-2.75v-4.76h1.23v4.71c0,1.79,.81,2.69,2.43,2.69,.79,0,1.39-.22,1.81-.66,.42-.44,.63-1.12,.63-2.03v-4.71h1.19v4.76c0,1.2-.32,2.12-.96,2.76-.64,.63-1.54,.95-2.69,.95s-2.04-.32-2.68-.96Z"></path><path class="cls-2" d="M166.69,41.24c.64,.52,.96,1.23,.96,2.14s-.32,1.62-.96,2.14c-.64,.52-1.52,.78-2.64,.78h-2.13v2.54h-1.23v-8.37h3.36c1.12,0,2,.26,2.64,.78Zm-.89,3.53c.41-.32,.62-.79,.62-1.39s-.21-1.07-.62-1.39c-.41-.32-1.01-.48-1.79-.48h-2.09v3.75h2.09c.78,0,1.38-.16,1.79-.48Z"></path></g><path d="M131.54,36.13h9.82L123.96,.27h-8.89l-17.34,35.86h9.82l3.2-6.75h17.6l3.2,6.75Zm-17.5-13.69l4.96-10.46h1.1l4.96,10.46h-11.01Z"></path></g></g></svg>